<svg id="Layer_1" data-name="Layer 1" xmlns="http://www.w3.org/2000/svg" viewBox="0 0 1858.03 425">
  <defs>
    <style>
      .cls-1 {
        fill: #1a1a1a;
      }

      .cls-2 {
        fill: #1788fb;
      }
    </style>
  </defs>
  <g>
    <g>
      <path class="cls-1" d="M477.33,327.3V103.5h103.9q38.7,0,58.5,19.8Q655,138.6,655,162q0,31.65-29.4,48.3c13.9,5.3,24.3,12.3,31.3,20.9s10.5,20.2,10.5,34.7c0,20-7.5,35.3-22.4,45.7s-35.4,15.7-61.4,15.7ZM525.23,194h45.4c23.7,0,35.5-8.1,35.5-24.3,0-7.5-2.8-13.2-8.3-17.1s-13.5-5.9-24-5.9h-48.6V194Zm0,90.1h58.5q34.8,0,34.8-24.9,0-24.3-36.4-24.3h-56.9v49.2Z"/>
      <path class="cls-1" d="M705.23,327.3V142.5a48.65,48.65,0,0,1,48.6-48.6h0V327.3Z"/>
      <path class="cls-1" d="M856.43,330.5c-18.3,0-32.6-5.6-42.8-16.9s-15.3-26.9-15.3-46.7V204.5a48.65,48.65,0,0,1,48.6-48.6h0v95.6c0,11.3,2.6,19.9,7.7,25.9s12.4,9,21.7,9,16.8-3,22.2-9,8.2-14.6,8.2-25.9v-47a48.65,48.65,0,0,1,48.6-48.6h0V327.3h-48.6V303C892.33,321.3,875.63,330.5,856.43,330.5Z"/>
      <path class="cls-1" d="M1079.93,331.1q-39,0-64.3-24.8c-16.8-16.5-25.3-38-25.3-64.4q0-37.35,24-63.3t60.7-25.9c27.1,0,47.7,9,62,26.9s21.4,40,21.4,66.2c0,2.6-.2,6.8-.6,12.8h-119.2q3.45,16.35,14.4,24.9c7.2,5.8,16.4,8.6,27.5,8.6a56.1,56.1,0,0,0,18.7-3.2c16.8-6,35.5-3.1,48.9,8.7l1.8,1.6Q1124,331.15,1079.93,331.1ZM1038,228.2h73.2c-1.5-11.1-5.4-19.9-11.7-26.5s-14.4-9.9-24.5-9.9c-9.8,0-18,3.3-24.5,9.8S1039.93,216.9,1038,228.2Z"/>
      <path class="cls-1" d="M1193,327.3V289.9l123.1-143.2h-119.2a43.21,43.21,0,0,1,43.2-43.2h139.4v37.4l-123.1,143.2h79.9a43.21,43.21,0,0,1,43.2,43.2H1193Z"/>
      <path class="cls-1" d="M1421.93,137.1V93.9h51.2v43.2Zm1.3,190.2V155.9h48.6V327.3Z"/>
      <path class="cls-1" d="M1519.83,327.3V142.5a48.65,48.65,0,0,1,48.6-48.6h0V327.3Z"/>
      <path class="cls-1" d="M1616.33,327.3V142.5a48.65,48.65,0,0,1,48.6-48.6h0V327.3Z"/>
      <path class="cls-1" d="M1759.23,330.5c-16.8,0-30.9-4.7-42-14.1s-16.8-22.4-16.8-39c0-18.1,6.2-31.8,18.7-40.9s29.3-13.7,50.4-13.7a127.94,127.94,0,0,1,41.9,7v-2.9q0-31.35-36.8-31.3c-14.7,0-30.5,3.1-47.3,9.3h0c-7.3-22.2,7.1-45.9,30.2-49.1a174.17,174.17,0,0,1,24.1-1.7q38.7,0,57.9,19.2c12.4,12.4,18.5,30.6,18.5,54.7v99.4h-47V308.9C1798,323.2,1780.73,330.5,1759.23,330.5Zm14.7-33.6c11.3,0,20.5-2.8,27.5-8.5a26.43,26.43,0,0,0,10.5-21.6v-8.6c-9.2-4.3-19.5-6.4-31-6.4-10.7,0-18.9,2.1-24.8,6.2s-8.8,10.2-8.8,18.1c0,6.4,2.4,11.5,7.4,15.2S1766,296.9,1773.93,296.9Z"/>
    </g>
    <path class="cls-2" d="M257.43,204.8q47.85-29.4,47.8-88,0-52.35-37.4-84.6T169.53,0H0V53.3c0,18.2,2.6,34.6,20.3,39a30.34,30.34,0,0,0,8.6,1c14.9-1,111.2-27.7,137.7-29.2a15.15,15.15,0,0,1,14.6,8.9c2.7,5.9,6.8,13.2,11.6,14.8,8.3,2.8,49.9-1.9,54.9,16.1,4.8,17.5-2.4,37.4-11.7,42.5l-8.9,15.5-8.8-10.1a2.2,2.2,0,0,0-.8.1l-8.3,14.4-8.8-10.1c-.5,0-.6.1-1.1.1l-8.5,14.9-9-10.3a1.7,1.7,0,0,0-.7.1l-17.3,5.4c-7.2,2.5-12.1,4.9-12.4,6.9-.3,1.8,3,6,8.3,11.3l12.6,11.9c.2.3.3.4.5.7l16.6-.9-3.6,12.4c.4.5.6.7,1,1.2l16.7-.9-3.6,12.4c.4.5.6.8,1,1.3l16.8-.9-3.9,13.7a8.63,8.63,0,0,1,2,3.5c1.6,8.8-5.2,20.8-28.5,18.8s-19.2-19.7-71-4.1c-48.3,14.6-79.1,35.6-99.6,78.2C-1.47,369.4,0,425,0,425h179.8c43.4,0,77.5-6.5,102.3-28.2s37.3-51.7,37.3-90.3Q319.43,237.35,257.43,204.8Z"/>
  </g>
</svg>
