<svg id="Layer_1" data-name="Layer 1" xmlns="http://www.w3.org/2000/svg" viewBox="0 0 319.4 425"><defs><style>.cls-1{fill:#1a1a1a;}</style></defs><path class="cls-1" d="M257.43,204.8q47.85-29.4,47.8-88,0-52.35-37.4-84.6T169.53,0H0V53.3c0,18.2,2.6,34.6,20.3,39a30.4,30.4,0,0,0,8.6,1c14.9-1,111.2-27.7,137.7-29.2A15.14,15.14,0,0,1,181.2,73c2.7,5.9,6.8,13.2,11.6,14.8,8.3,2.8,49.9-1.9,54.9,16.1,4.8,17.5-2.4,37.4-11.7,42.5l-8.9,15.5-8.8-10.1a2.18,2.18,0,0,0-.8.1l-8.3,14.4-8.8-10.1c-.5,0-.6.1-1.1.1l-8.5,14.9-9-10.3a1.66,1.66,0,0,0-.7.1l-17.3,5.4c-7.2,2.5-12.1,4.9-12.4,6.9-.3,1.8,3,6,8.3,11.3l12.6,11.9c.2.3.3.4.5.7l16.6-.9-3.6,12.4c.4.5.6.7,1,1.2l16.7-.9-3.6,12.4c.4.5.6.8,1,1.3l16.8-.9-3.9,13.7a8.63,8.63,0,0,1,2,3.5c1.6,8.8-5.2,20.8-28.5,18.8s-19.2-19.7-71-4.1C68,268.3,37.2,289.3,16.7,331.9-1.47,369.4,0,425,0,425H179.8c43.4,0,77.5-6.5,102.3-28.2s37.3-51.7,37.3-90.3Q319.43,237.35,257.43,204.8Z"/></svg>